<svg width="16" height="16" xmlns="http://www.w3.org/2000/svg">

 <g>
  <title>Layer 1</title>
  <path id="svg_1" fill="#36acdb" d="m3,1a1.0001,1.0001 0 0 0 -0.38672,0.07813a1.0001,1.0001 0 0 0 -0.00195,0c-0.00228,0.00095 -0.00359,0.00293 -0.00586,0.0039a1.0001,1.0001 0 0 0 -0.31055,0.20898c-0.00129,0.00128 -0.00263,0.00262 -0.00391,0.00391a1.0001,1.0001 0 0 0 -0.20508,0.30469c-0.00299,0.00685 -0.00692,0.0126 -0.00976,0.01953a1.0001,1.0001 0 0 0 -0.07618,0.38086c0,1.5 0.96697,2.6247 1.873,3.6602c0.76081,0.8695 1.4161,1.6425 1.875,2.3398c-0.45889,0.6974 -1.1141,1.4723 -1.875,2.3418c-0.90608,1.0355 -1.873,2.1582 -1.873,3.6582a1.0001,1.0001 0 0 0 0.07813,0.38867l0,0.00195c0.00093,0.00221 0.00296,0.00366 0.0039,0.00586a1.0001,1.0001 0 0 0 0.20898,0.30664c0.00102,0.00103 0.00289,0.00484 0.00391,0.00586a1.0001,1.0001 0 0 0 0.30078,0.20312c0.00932,0.00412 0.01788,0.00788 0.02735,0.01172a1.0001,1.0001 0 0 0 0.37695,0.07617l10,0a1.0001,1.0001 0 0 0 0.375,-0.07422c0.01017,-0.0041 0.01929,-0.00925 0.02929,-0.01367a1.0001,1.0001 0 0 0 0.29297,-0.19922c0.00479,-0.00468 0.00898,-0.0089 0.01367,-0.01367a1.0001,1.0001 0 0 0 0.20117,-0.29492c0.00412,-0.00932 0.00788,-0.01788 0.01172,-0.02735a1.0001,1.0001 0 0 0 0.07618,-0.37695c0,-1.5 -0.96697,-2.6227 -1.873,-3.6582c-0.76087,-0.8695 -1.4161,-1.6444 -1.875,-2.3418c0.4589,-0.6973 1.1142,-1.4703 1.875,-2.3398c0.90608,-1.0355 1.873,-2.1602 1.873,-3.6602a1.0001,1.0001 0 0 0 -0.07813,-0.39062a1.0001,1.0001 0 0 0 -0.21484,-0.31641a1.0001,1.0001 0 0 0 -0.31055,-0.21094a1.0001,1.0001 0 0 0 -0.01172,-0.00586a1.0001,1.0001 0 0 0 -0.38477,-0.07617l-10,0l0.00002,0.00001zm1.5879,2l6.8242,0c-0.2378,0.4408 -0.3055,0.7892 -0.78906,1.3418c-0.84392,0.9645 -1.8983,1.9723 -2.5176,3.2109a1.0001,1.0001 0 0 0 -0.10547,0.44727a1.0001,1.0001 0 0 0 -0.10547,-0.44727c-0.61926,-1.2386 -1.6737,-2.2464 -2.5176,-3.2109c-0.48356,-0.5526 -0.55126,-0.901 -0.78906,-1.3418l0.00006,0z"/>
 </g>
</svg>