<svg width="16" height="16" xmlns="http://www.w3.org/2000/svg">
 <g>
  <title>Layer 1</title>
  <path stroke="#36acdb" stroke-width="0.75" d="m5.08065,10.49749q-0.41661,0 -0.70268,-0.2951t-0.25205,-0.69434q0.05208,-0.72906 0.34717,-1.26718t0.93736,-1.11095q0.7117,-0.62491 1.08526,-1.08526t0.37286,-1.04985q0,-0.7117 -0.47701,-1.18038t-1.32828,-0.46868q-0.55547,0 -0.94639,0.23469t-0.63324,0.58117q-0.24302,0.34717 -0.59852,0.46868t-0.68601,-0.01736q-0.39925,-0.17359 -0.54645,-0.57283t0.06041,-0.74642q0.5034,-0.78114 1.35397,-1.30189t1.99624,-0.52076q1.82265,0 2.80376,1.01513t0.98041,2.43923q0,0.86793 -0.37286,1.48451t-1.17205,1.39702q-0.59019,0.55547 -0.83321,0.90265t-0.32981,0.7985q-0.06943,0.43396 -0.36453,0.7117t-0.69434,0.27774l-0.00001,-0.00002zm-0.01736,4.16606q-0.57283,0 -0.98111,-0.40827t-0.40758,-0.98041q0,-0.57283 0.40827,-0.98111t0.98041,-0.40758q0.57283,0 0.98111,0.40827t0.40758,0.98041q0,0.57283 -0.40827,0.98111t-0.98041,0.40758z" fill="#36acdb" id="svg_1"/>
  <path stroke="#36acdb" stroke-width="0.75" d="m10.43501,10.49749q-0.41661,0 -0.70268,-0.2951t-0.25205,-0.69434q0.05208,-0.72906 0.34717,-1.26718t0.93736,-1.11095q0.7117,-0.62491 1.08526,-1.08526t0.37286,-1.04985q0,-0.7117 -0.47701,-1.18038t-1.32828,-0.46868q-0.55547,0 -0.94639,0.23469t-0.63324,0.58117q-0.24302,0.34717 -0.59852,0.46868t-0.68601,-0.01736q-0.39925,-0.17359 -0.54645,-0.57283t0.06041,-0.74642q0.5034,-0.78114 1.35397,-1.30189t1.99624,-0.52076q1.82265,0 2.80376,1.01513t0.98041,2.43923q0,0.86793 -0.37286,1.48451t-1.17205,1.39702q-0.59019,0.55547 -0.83321,0.90265t-0.32981,0.7985q-0.06943,0.43396 -0.36453,0.7117t-0.69434,0.27774l-0.00001,-0.00002zm-0.01736,4.16606q-0.57283,0 -0.98111,-0.40827t-0.40758,-0.98041q0,-0.57283 0.40827,-0.98111t0.98041,-0.40758q0.57283,0 0.98111,0.40827t0.40758,0.98041q0,0.57283 -0.40827,0.98111t-0.98041,0.40758z" fill="#36acdb" id="svg_2"/>
 </g>

</svg>